<?xml version="1.0" encoding="UTF-8" standalone="no"?>
<svg
   width="128"
   height="128"
   viewBox="0 0 128 128"
   version="1.1"
   id="svg7"
   sodipodi:docname="icon.svg"
   inkscape:export-filename="icon-64.png"
   inkscape:export-xdpi="36"
   inkscape:export-ydpi="36"
   inkscape:version="1.4.4 (dcaf3e7d9e, 2026-05-05)"
   xmlns:inkscape="http://www.inkscape.org/namespaces/inkscape"
   xmlns:sodipodi="http://sodipodi.sourceforge.net/DTD/sodipodi-0.dtd"
   xmlns="http://www.w3.org/2000/svg"
   xmlns:svg="http://www.w3.org/2000/svg">
  <sodipodi:namedview
     id="namedview7"
     pagecolor="#ffffff"
     bordercolor="#000000"
     borderopacity="0.25"
     inkscape:showpageshadow="2"
     inkscape:pageopacity="0.0"
     inkscape:pagecheckerboard="0"
     inkscape:deskcolor="#d1d1d1"
     inkscape:zoom="5.0086748"
     inkscape:cx="49.613922"
     inkscape:cy="52.009765"
     inkscape:window-width="1920"
     inkscape:window-height="1014"
     inkscape:window-x="0"
     inkscape:window-y="0"
     inkscape:window-maximized="1"
     inkscape:current-layer="g3" />
  <defs
     id="defs2">
    <clipPath
       id="L">
      <rect
         x="0"
         y="0"
         width="63"
         height="128"
         id="rect1" />
    </clipPath>
    <clipPath
       id="R">
      <rect
         x="65"
         y="0"
         width="63"
         height="128"
         id="rect2" />
    </clipPath>
  </defs>
  <g
     clip-path="url(#L)"
     id="g3"
     transform="matrix(1,0,0,1.1430705,0.9286578,5.424731)">
    <path
       d="M 27.623208,18 83,18 C 80.333333,37.333333 79.333333,56 80,74 H 44 C 44.666667,56 39.873248,33.840047 27.623208,18 Z"
       fill="#7c3aed"
       id="path2"
       sodipodi:nodetypes="ccccc" />
    <rect
       x="43"
       y="60"
       width="38"
       height="11"
       fill="#c4b5fd"
       id="rect3" />
    <path
       d="m 12,66 c 33.333333,5.333333 66.666667,5.333333 100,0 0,4.666667 -2.66667,7 -8,7 C 76,79 48.199654,79.698657 20.199654,73.698657 14.86632,71.952014 12,70.666667 12,66 Z"
       fill="#7c3aed"
       id="path3"
       sodipodi:nodetypes="ccccc" />
  </g>
  <g
     clip-path="url(#R)"
     id="g7">
    <rect
       x="24"
       y="26"
       width="80"
       height="13"
       rx="6.5"
       fill="#7C3AED"
       opacity="0.95"
       id="rect4" />
    <rect
       x="40"
       y="48"
       width="59.005196"
       height="11.5"
       rx="5.4722562"
       fill="#7c3aed"
       opacity="0.58"
       id="rect5"
       style="stroke-width:0.975549" />
    <rect
       x="56"
       y="68"
       width="37.60762"
       height="9.5"
       rx="4.253243"
       fill="#7c3aed"
       opacity="0.32"
       id="rect6"
       style="stroke-width:0.946266" />
    <rect
       x="66"
       y="86"
       width="22.595497"
       height="8"
       rx="4.5190992"
       fill="#7c3aed"
       opacity="0.17"
       id="rect7"
       style="stroke-width:1.06291" />
  </g>
</svg>
